Coordinates
version=1
nRows=13
nColumns=40
inDegrees=yes

Units are S.I. units (second, meters, Newtons, ...)
Angles are in degrees.

endheader
time	pelvis_tilt	pelvis_list	pelvis_rotation	pelvis_tx	pelvis_ty	pelvis_tz	hip_flexion_r	hip_adduction_r	hip_rotation_r	knee_angle_r	knee_angle_r_beta	ankle_angle_r	subtalar_angle_r	mtp_angle_r	hip_flexion_l	hip_adduction_l	hip_rotation_l	knee_angle_l	knee_angle_l_beta	ankle_angle_l	subtalar_angle_l	mtp_angle_l	lumbar_extension	lumbar_bending	lumbar_rotation	arm_flex_r	arm_add_r	arm_rot_r	elbow_flex_r	pro_sup_r	wrist_flex_r	wrist_dev_r	arm_flex_l	arm_add_l	arm_rot_l	elbow_flex_l	pro_sup_l	wrist_flex_l	wrist_dev_l
     14.87500000	     -5.01820100	     -3.66743370	     -2.34140516	      0.80434756	      0.92315531	      0.49388097	     22.12915992	      0.82690516	    -10.02592539	     21.10685210	     21.10685210	      5.90944319	     -0.80859646	     -3.60614736	      8.58335929	     -7.92252857	     -4.85625482	     35.66249233	     35.66249233	     16.25361418	    -12.43042692	     -4.39778515	     -9.55846075	      6.91798080	      0.20313684	      0.19706052	    -12.98168103	     -7.03486814	     37.56298786	     41.60218624	      0.00000000	      0.00000000	      7.29757258	    -12.56838189	     -8.73953225	     73.15566055	     42.55740520	      0.00000000	      0.00000000
     14.88828571	     -4.96563092	     -3.72991736	     -1.99756757	      0.80335855	      0.92347828	      0.49625657	     21.64653076	      0.90963975	    -10.46022229	     21.14255392	     21.14255392	      6.26670239	     -0.59193943	     -3.86983446	     10.32322232	     -8.26723923	     -3.91806147	     39.23363151	     39.23363151	     14.00963886	    -14.30084044	     -6.36926420	     -9.55909324	      7.06553783	      0.31465071	      1.26561201	    -13.57095548	     -5.14561594	     40.36036131	     41.60067143	      0.00000000	      0.00000000	      7.34984307	    -12.38061840	     -7.61157835	     69.85001904	     42.69117972	      0.00000000	      0.00000000
     14.90157143	     -4.95562439	     -3.97599522	     -1.66996332	      0.80218620	      0.92368722	      0.49877643	     21.08894264	      1.24310437	    -10.89936013	     20.92505843	     20.92505843	      6.56922144	     -0.37195778	     -4.07414151	     12.28911944	     -8.87714444	     -3.07488133	     43.06084238	     43.06084238	     12.32547451	    -15.29989052	     -6.92342254	     -9.61529082	      7.29079817	      0.81306422	      2.23715124	    -14.34555496	     -3.45664283	     42.88627468	     41.73104524	      0.00000000	      0.00000000	      7.27063907	    -11.98473264	     -6.40176820	     67.69734868	     42.94091549	      0.00000000	      0.00000000
     14.91485714	     -4.81157969	     -4.20863045	     -1.39057821	      0.80086597	      0.92401456	      0.50127551	     20.45904686	      1.57786138	    -11.25054659	     20.81980329	     20.81980329	      6.91711905	     -0.23783264	     -4.19193768	     14.12222544	     -9.43354180	     -2.28188291	     46.75704550	     46.75704550	     10.81770597	    -16.00655113	     -6.80821872	     -9.87970213	      7.44229059	      0.97683246	      4.22611223	    -14.55644300	     -3.49893362	     43.83395563	     41.73335384	      0.00000000	      0.00000000	      6.62962844	    -11.60522752	     -6.02509707	     66.77625174	     42.92875443	      0.00000000	      0.00000000
     14.92814286	     -4.92185863	     -4.31766754	     -0.98193817	      0.79933092	      0.92409904	      0.50336327	     20.07776423	      1.70813080	    -11.80353259	     20.64076959	     20.64076959	      7.21623831	      0.10174531	     -4.41432111	     16.38996608	     -9.66705148	     -1.20945337	     50.46154878	     50.46154878	     10.28796205	    -16.29491404	     -3.81937827	     -9.68755970	      7.52781891	      1.01531362	      5.59212226	    -15.11482108	     -2.27170795	     45.95528120	     41.82725980	      0.00000000	      0.00000000	      6.77788074	    -11.24315748	     -5.21300332	     62.66197253	     43.08472277	      0.00000000	      0.00000000
     14.94142857	     -4.88258156	     -4.54719675	     -0.64390974	      0.79769404	      0.92430474	      0.50563013	     19.54225650	      2.04679030	    -12.14661015	     20.44677838	     20.44677838	      7.55747900	      0.18330536	     -4.49711825	     18.33391336	    -10.07933311	     -0.31810658	     53.57038558	     53.57038558	      9.04282165	    -16.67307866	     -3.26617198	     -9.84492907	      7.62568995	      1.07830463	      7.53265635	    -15.32162020	     -2.31067146	     47.06448758	     41.83099487	      0.00000000	      0.00000000	      5.96609321	    -10.96263054	     -4.84983155	     61.45836812	     43.07681151	      0.00000000	      0.00000000
     14.95471429	     -4.80128953	     -4.64212692	     -0.37829965	      0.79589690	      0.92471399	      0.50771176	     18.98009202	      2.25237446	    -12.35922400	     20.25078484	     20.25078484	      7.87517107	      0.29723485	     -4.57261188	     20.11015212	    -10.34366259	      0.32061178	     56.15896847	     56.15896847	      7.95510700	    -16.99676874	     -2.67612694	    -10.09983500	      7.62674991	      1.32963857	      9.67759670	    -15.62362375	     -2.35045381	     48.15124920	     41.82246964	      0.00000000	      0.00000000	      5.31108221	    -10.57757783	     -4.54106512	     60.24920665	     43.05823073	      0.00000000	      0.00000000
     14.96800000	     -4.90701756	     -4.72627195	      0.05283533	      0.79392803	      0.92504408	      0.50943199	     18.56247413	      2.37238422	    -12.89541237	     19.92612916	     19.92612916	      8.06582634	      0.61790515	     -4.68859419	     22.31279628	    -10.33011923	      1.37039091	     58.77938860	     58.77938860	      9.28332821	    -16.39612812	      3.61059562	     -9.88652001	      7.66656120	      1.57834572	     10.80501862	    -16.51847167	     -0.47778090	     50.99440015	     41.89007389	      0.00000000	      0.00000000	      6.33146079	     -9.90518955	     -4.15868799	     53.66840222	     43.24856742	      0.00000000	      0.00000000
     14.98128571	     -4.90979678	     -4.83126471	      0.41154246	      0.79190563	      0.92554589	      0.51125007	     18.01407856	      2.59921387	    -13.16612457	     19.53259979	     19.53259979	      8.27517671	      0.67166943	     -4.65959211	     24.05475817	    -10.50499913	      1.99899957	     60.31272562	     60.31272562	      8.73364848	    -16.57706769	      4.27369584	    -10.00794436	      7.64145551	      1.43091004	     12.87634720	    -16.58310075	     -0.59224947	     52.41279446	     41.90501616	      0.00000000	      0.00000000	      5.38161868	     -9.77032960	     -3.92150346	     52.24365495	     43.26118141	      0.00000000	      0.00000000
     14.99457143	     -4.91661822	     -4.84399775	      0.73517841	      0.78975149	      0.92615992	      0.51285728	     17.47231558	      2.71420534	    -13.43267818	     19.12942748	     19.12942748	      8.48416017	      0.85701307	     -4.76821310	     25.74128343	    -10.54775876	      2.50354892	     61.37082384	     61.37082384	      9.18508252	    -16.46124058	      6.95606677	    -10.12397106	      7.54590147	      1.82706426	     14.40674722	    -17.29451944	      0.24786811	     54.60895633	     42.02883907	      0.00000000	      0.00000000	      5.71759983	     -9.11033728	     -4.03754463	     47.94133650	     43.47736921	      0.00000000	      0.00000000
     15.00785714	     -4.94370069	     -4.80226934	      1.05114621	      0.78755357	      0.92680085	      0.51436958	     16.96903337	      2.78825303	    -13.59373243	     18.74241836	     18.74241836	      8.69835838	      0.87250916	     -4.74772633	     27.20380744	    -10.58414461	      2.81253028	     61.56716249	     61.56716249	      8.95397847	    -16.62086972	      7.12008634	    -10.26704039	      7.32433523	      2.07278241	     16.44855844	    -17.61080656	      0.01603730	     55.66982244	     42.03023009	      0.00000000	      0.00000000	      4.81823336	     -8.87239829	     -3.91964722	     47.02281020	     43.47152097	      0.00000000	      0.00000000
     15.02114286	     -4.97816483	     -4.77349022	      1.44492286	      0.78531403	      0.92751126	      0.51557181	     16.35732849	      2.86150493	    -13.91971612	     18.12983799	     18.12983799	      8.79793822	      1.06797588	     -4.89023185	     28.60262742	    -10.53684158	      3.17069958	     61.22535162	     61.22535162	      9.20940800	    -16.76228369	      8.20711566	    -10.34126995	      7.23279837	      1.91980353	     18.22568973	    -17.97327387	      0.86064229	     58.22156687	     42.09493782	      0.00000000	      0.00000000	      5.01880411	     -8.45128748	     -4.35777578	     42.29156931	     43.66591878	      0.00000000	      0.00000000
     15.03442857	     -5.04344516	     -4.71419444	      1.77971681	      0.78300583	      0.92814579	      0.51675241	     15.81518762	      2.92666085	    -14.08784982	     17.56355772	     17.56355772	      8.88823004	      1.12496059	     -4.93827992	     29.83859338	    -10.53138513	      3.31274597	     60.19340387	     60.19340387	      9.33577170	    -16.87561821	      8.55020561	    -10.46544162	      7.05643015	      1.97624826	     20.09361830	    -18.20655822	      0.94686930	     60.22959975	     42.16063849	      0.00000000	      0.00000000	      4.46738577	     -8.18981320	     -4.67909296	     39.99605834	     43.80249350	      0.00000000	      0.00000000
